{"title":"Housefull 3 (2016) Hindi DESi CAM 700MB [CDRiPD]","uid":14780513,"size":734062635,"categoryP":"video","categoryS":"movies","magnet":"?xt=urn:btih:6e4def9f79d0989fe419861d4a700d603947128d&amp;dn=Housefull+3+%282016%29+Hindi+DESi+CAM+700MB+%5BCDRiPD%5D&amp;tr=udp%3A%2F%2Ftracker.leechers-paradise.org%3A6969&amp;tr=udp%3A%2F%2Fzer0day.ch%3A1337&amp;tr=udp%3A%2F%2Fopen.demonii.com%3A1337&amp;tr=udp%3A%2F%2Ftracker.coppersurfer.tk%3A6969&amp;tr=udp%3A%2F%2Fexodus.desync.com%3A6969","seeders":1,"leechers":0,"uploader":"CDRiPD","files":2,"time":1464987040,"description":"Housefull 3 (2016) Hindi DESi CAM 700MB [CDRiPD]\r\n\r\n\r\nFormat                                   : MPEG-PS\r\nFile size                                : 700 MiB\r\nDuration                                 : 2h 29mn\r\nOverall bit rate mode                    : Variable\r\nOverall bit rate                         : 656 Kbps\r\n\r\nVideo\r\nFormat                                   : MPEG Video\r\nFormat version                           : Version 2\r\nFormat profile                           :   \r\nFormat settings, BVOP                    : Yes\r\nFormat settings, Matrix                  : Custom\r\nFormat settings, GOP                     : Variable\r\nDuration                                 : 2h 29mn\r\nBit rate mode                            : Variable\r\nBit rate                                 : 583 Kbps\r\nWidth                                    : 352 pixels\r\nHeight                                   : 288 pixels\r\nDisplay aspect ratio                     : 4:3\r\nFrame rate                               : 25.000 fps\r\nStandard                                 : PAL\r\nColor space                              : YUV\r\nChroma subsampling                       : 4:2:0\r\nBit depth                                : 8 bits\r\nScan type                                : Progressive\r\nStream size                              : 618 MiB (88%)\r\n\r\nAudio\r\nFormat                                   : MPEG Audio\r\nFormat version                           : Version 1\r\nFormat profile                           : Layer 2\r\nDuration                                 : 2h 29mn\r\nBit rate mode                            : Constant\r\nBit rate                                 : 64.0 Kbps\r\nChannel(s)                               : 2 channels\r\nSampling rate                            : 48.0 KHz\r\nCompression mode                         : Lossy\r\nStream size                              : 68.3 MiB (10%)\r\nLanguage                                 : Hindi\r\n\r\n\r\nScreens:\r\n \nhttps://ititli.com/XuY \nhttps://ititli.com/Xu4 \nhttps://ititli.com/XuK \nhttps://ititli.com/XuV \nhttps://ititli.com/Xut \nhttps://ititli.com/XuL \nhttps://ititli.com/Xud \nhttps://ititli.com/Xu0","torrent":{"xt":"urn:btih:6e4def9f79d0989fe419861d4a700d603947128d","amp;dn":"Housefull+3+%282016%29+Hindi+DESi+CAM+700MB+%5BCDRiPD%5D","amp;tr":["udp%3A%2F%2Ftracker.leechers-paradise.org%3A6969","udp%3A%2F%2Fzer0day.ch%3A1337","udp%3A%2F%2Fopen.demonii.com%3A1337","udp%3A%2F%2Ftracker.coppersurfer.tk%3A6969","udp%3A%2F%2Fexodus.desync.com%3A6969"],"infoHash":"6e4def9f79d0989fe419861d4a700d603947128d","infoHashBuffer":{"type":"Buffer","data":[110,77,239,159,121,208,152,159,228,25,134,29,74,112,13,96,57,71,18,141]},"announce":[],"urlList":[]}}